<?xml version="1.0"?>
<svg xmlns="http://www.w3.org/2000/svg" viewBox="0 0 64 64">
    <path d="M 25.720703 2.0058594 C 25.458488 2.0158027 25.194891 2.038875 24.931641 2.078125 C 22.453641 2.447125 20.291875 4.2329531 19.421875 6.6269531 C 19.235875 7.1379531 19.111828 7.6575 19.048828 8.1875 C 18.560828 8.0665 18.061687 8.0079062 17.554688 8.0039062 C 17.536687 8.0029063 17.518 8 17.5 8 C 17.488 8 17.47975 8.0068125 17.46875 8.0078125 C 17.04775 8.0098125 16.623219 8.0449063 16.199219 8.1289062 C 13.684219 8.6269062 11.650719 10.650063 11.136719 13.164062 C 10.932719 14.167063 10.957031 15.171906 11.207031 16.128906 C 8.2390312 16.728906 6 19.358 6 22.5 C 6 23.614 6.2852656 24.699203 6.8222656 25.658203 C 6.5052656 25.795203 6.2003438 25.956766 5.9023438 26.134766 C 5.8343438 26.174766 5.7681719 26.213859 5.7011719 26.255859 C 5.4321719 26.427859 5.1689219 26.613359 4.9199219 26.818359 C 4.8139219 26.905359 4.7181875 27.00175 4.6171875 27.09375 C 4.5261875 27.17675 4.4297969 27.253797 4.3417969 27.341797 C 4.3277969 27.355797 4.3235469 27.373672 4.3105469 27.388672 C 2.8745469 28.841672 2 30.823 2 33 C 2 35.249 2.9670937 37.401156 4.6210938 38.910156 C 4.6160938 38.922156 4.6124219 38.937219 4.6074219 38.949219 C 4.5734219 39.031219 4.547625 39.115219 4.515625 39.199219 C 4.430625 39.425219 4.3569688 39.655672 4.2929688 39.888672 C 4.2779688 39.946672 4.2513281 39.999594 4.2363281 40.058594 C 4.2313281 40.078594 4.238375 40.097188 4.234375 40.117188 C 4.086375 40.732188 4 41.364 4 42 C 4 45.342 6.0515625 48.273172 9.1015625 49.451172 C 9.0995625 49.460172 9.1016094 49.469516 9.0996094 49.478516 C 9.0366094 49.809516 9 50.15 9 50.5 C 9 53.305 11.110172 55.624984 13.826172 55.958984 C 15.396172 59.598984 19.002 62 23 62 C 25.625 62 28.104422 60.990203 29.982422 59.158203 C 31.094422 58.072203 32.905578 58.072203 34.017578 59.158203 C 35.896578 60.990203 38.375 62 41 62 C 44.998 62 48.603828 59.598984 50.173828 55.958984 C 52.889828 55.624984 55 53.305 55 50.5 C 55 50.147 54.963391 49.80275 54.900391 49.46875 C 54.899391 49.46275 54.899438 49.457172 54.898438 49.451172 C 57.948438 48.273172 60 45.342 60 42 C 60 41.693 59.976406 41.388938 59.941406 41.085938 C 59.928406 40.969938 59.908625 40.854234 59.890625 40.740234 C 59.861625 40.560234 59.828109 40.381125 59.787109 40.203125 C 59.755109 40.065125 59.722594 39.928969 59.683594 39.792969 C 59.641594 39.644969 59.590062 39.500469 59.539062 39.355469 C 59.488062 39.210469 59.443766 39.064828 59.384766 38.923828 C 59.382766 38.919828 59.381859 38.916109 59.380859 38.912109 C 61.033859 37.402109 62 35.249 62 33 C 62 30.287 60.651344 27.873875 58.527344 26.421875 C 58.507344 26.405875 58.496609 26.382188 58.474609 26.367188 C 58.436609 26.341188 58.393469 26.321875 58.355469 26.296875 C 58.226469 26.213875 58.091031 26.139453 57.957031 26.064453 C 57.769031 25.957453 57.580766 25.858578 57.384766 25.767578 C 57.313766 25.734578 57.249734 25.691156 57.177734 25.660156 C 57.713734 24.699156 58 23.614 58 22.5 C 58 19.358 55.760969 16.728906 52.792969 16.128906 C 53.042969 15.171906 53.067281 14.166063 52.863281 13.164062 C 52.349281 10.650063 50.315781 8.6279062 47.800781 8.1289062 C 47.376781 8.0449063 46.954203 8.0098125 46.533203 8.0078125 C 46.521203 8.0068125 46.512 8 46.5 8 C 46.482 8 46.463313 8.0039062 46.445312 8.0039062 C 46.165312 8.0059063 45.888281 8.0245 45.613281 8.0625 C 45.537281 8.0725 45.465625 8.0905156 45.390625 8.1035156 C 45.243625 8.1295156 45.096172 8.1515 44.951172 8.1875 C 44.888172 7.6595 44.763125 7.1379531 44.578125 6.6269531 C 43.708125 4.2329531 41.546359 2.447125 39.068359 2.078125 C 36.963359 1.766125 34.853969 2.3993594 33.292969 3.8183594 C 32.567969 4.4783594 31.432031 4.4783594 30.707031 3.8183594 C 29.340281 2.5767344 27.556207 1.9362559 25.720703 2.0058594 z M 25.791016 4.0039062 C 27.109449 3.954209 28.38375 4.4124531 29.359375 5.2988281 C 30.838375 6.6448281 33.157719 6.6448281 34.636719 5.2988281 C 35.751719 4.2848281 37.259437 3.8326406 38.773438 4.0566406 C 40.534438 4.3186406 42.074266 5.5945938 42.697266 7.3085938 C 42.903266 7.8735938 42.999094 8.4384844 42.996094 9.0214844 C 42.012094 9.6504844 41.19625 10.544438 40.65625 11.648438 C 40.41325 12.144438 40.619234 12.744328 41.115234 12.986328 C 41.256234 13.055328 41.407687 13.089844 41.554688 13.089844 C 41.924687 13.089844 42.280125 12.882344 42.453125 12.527344 C 42.894125 11.626344 43.602125 10.931047 44.453125 10.498047 C 44.665125 10.390047 44.883469 10.298563 45.105469 10.226562 C 45.119469 10.221562 45.133437 10.215937 45.148438 10.210938 C 45.871437 9.9819375 46.640156 9.9417969 47.410156 10.091797 C 49.144156 10.436797 50.548344 11.831406 50.902344 13.566406 C 51.112344 14.596406 50.974953 15.629781 50.501953 16.550781 C 50.340953 16.864781 50.397938 17.238109 50.585938 17.537109 C 50.773938 17.836109 51.148047 18.007953 51.498047 18.001953 C 53.979047 18.001953 55.998047 20.020953 55.998047 22.501953 C 55.998047 23.441953 55.687625 24.342516 55.140625 25.103516 C 53.804625 24.910516 52.425203 25.037531 51.158203 25.519531 C 50.642203 25.715531 50.382125 26.294547 50.578125 26.810547 C 50.775125 27.327547 51.354141 27.586672 51.869141 27.388672 C 52.982141 26.965672 54.219859 26.898922 55.380859 27.169922 C 55.674859 27.238922 55.956469 27.332406 56.230469 27.441406 C 56.311469 27.473406 56.390703 27.510875 56.470703 27.546875 C 56.682703 27.641875 56.885031 27.747234 57.082031 27.865234 C 57.150031 27.906234 57.222062 27.942328 57.289062 27.986328 C 58.947062 29.064328 60 30.918 60 33 C 60 34.566 59.397938 36.018 58.335938 37.125 C 57.763937 36.384 57.064234 35.732797 56.240234 35.216797 C 55.772234 34.922797 55.156281 35.06525 54.863281 35.53125 C 54.570281 36.00025 54.710688 36.617156 55.179688 36.910156 C 56.064687 37.464156 56.771859 38.219703 57.255859 39.095703 C 57.259859 39.102703 57.259672 39.110187 57.263672 39.117188 C 57.625672 39.776187 57.859125 40.500094 57.953125 41.246094 C 57.983125 41.494094 58 41.746 58 42 C 58 44.511 56.446391 46.698125 54.150391 47.578125 C 53.226391 46.112125 51.632781 45.115625 49.800781 45.015625 C 49.917781 44.525625 50 44.023 50 43.5 C 50 42.434 49.736328 41.376406 49.236328 40.441406 C 48.977328 39.954406 48.370812 39.769297 47.882812 40.029297 C 47.395812 40.289297 47.212656 40.895813 47.472656 41.382812 C 47.822656 42.038812 48 42.751 48 43.5 C 48 45.586 46.5865 47.384047 44.5625 47.873047 C 44.0255 48.003047 43.696172 48.543078 43.826172 49.080078 C 43.937172 49.538078 44.345875 49.845703 44.796875 49.845703 C 44.874875 49.845703 44.954203 49.837359 45.033203 49.818359 C 46.682203 49.419359 48.032109 48.406312 48.912109 47.070312 C 49.107109 47.036312 49.3 47 49.5 47 C 50.962 47 52.213328 47.903687 52.736328 49.179688 C 52.822328 49.389688 52.888641 49.603312 52.931641 49.820312 C 52.975641 50.040312 53 50.267 53 50.5 C 53 52.418 51.449156 53.981 49.535156 54 C 49.048156 53.98 48.682156 54.247062 48.535156 54.664062 C 47.406156 57.854062 44.378 60 41 60 C 38.9 60 36.917063 59.193516 35.414062 57.728516 C 34.473062 56.810516 33.236 56.351563 32 56.351562 C 30.764 56.351562 29.526938 56.810516 28.585938 57.728516 C 27.082937 59.193516 25.1 60 23 60 C 19.622 60 16.593844 57.854062 15.464844 54.664062 C 15.317844 54.247062 14.960844 53.968 14.464844 54 C 12.550844 53.981 11 52.418 11 50.5 C 11 50.267 11.024359 50.039359 11.068359 49.818359 C 11.112359 49.599359 11.178625 49.385781 11.265625 49.175781 L 11.265625 49.173828 C 11.789625 47.899828 13.04 47 14.5 47 C 14.699 47 14.892891 47.037313 15.087891 47.070312 C 15.965891 48.402313 17.310125 49.414406 18.953125 49.816406 C 19.033125 49.836406 19.113406 49.84375 19.191406 49.84375 C 19.641406 49.84375 20.051109 49.537078 20.162109 49.080078 C 20.293109 48.544078 19.964734 48.003094 19.427734 47.871094 C 17.409734 47.378094 16 45.581 16 43.5 C 16 42.797 16.15775 42.123047 16.46875 41.498047 C 16.71475 41.003047 16.512578 40.403203 16.017578 40.158203 C 15.521578 39.911203 14.922734 40.113422 14.677734 40.607422 C 14.228734 41.512422 14 42.485 14 43.5 C 14 44.023 14.082219 44.525625 14.199219 45.015625 C 12.367219 45.115625 10.773609 46.112125 9.8496094 47.578125 C 7.5536094 46.698125 6 44.512 6 42 C 6 41.497 6.0645 40.997672 6.1875 40.513672 C 6.2505 40.266672 6.328875 40.024062 6.421875 39.789062 C 6.467875 39.674062 6.526125 39.566078 6.578125 39.455078 C 6.883125 38.808078 7.2915469 38.210078 7.8105469 37.705078 C 8.2065469 37.320078 8.213125 36.686016 7.828125 36.291016 C 7.442125 35.895016 6.8090625 35.888438 6.4140625 36.273438 C 6.1410625 36.539437 5.8911563 36.823047 5.6601562 37.123047 C 4.6001562 36.015047 4 34.564 4 33 C 4 31.298 4.7090938 29.753297 5.8710938 28.654297 C 5.9400937 28.588297 6.0110312 28.524891 6.0820312 28.462891 C 6.2890312 28.284891 6.5043281 28.115797 6.7363281 27.966797 C 6.7673281 27.946797 6.7990781 27.929156 6.8300781 27.910156 C 7.3790781 27.571156 7.9874375 27.310203 8.6484375 27.158203 C 8.6514375 27.157203 8.6542031 27.155297 8.6582031 27.154297 C 9.0932031 27.055297 9.542 27 10 27 C 10.608 27 11.209156 27.090531 11.785156 27.269531 C 12.311156 27.430531 12.871156 27.139328 13.035156 26.611328 C 13.199156 26.084328 12.904953 25.523375 12.376953 25.359375 C 11.608953 25.120375 10.81 25 10 25 C 9.611 25 9.2286094 25.037797 8.8496094 25.091797 C 8.3086094 24.333797 8 23.436 8 22.5 C 8 20.019 10.018656 17.999047 12.472656 17.998047 C 12.485656 17.999047 12.568078 18.004859 12.580078 18.005859 C 12.931078 18.016859 13.265125 17.837109 13.453125 17.537109 C 13.641125 17.238109 13.658094 16.862828 13.496094 16.548828 C 13.023094 15.627828 12.885703 14.596406 13.095703 13.566406 C 13.449703 11.832406 14.851938 10.435797 16.585938 10.091797 C 17.098938 9.9897969 17.611328 9.9749687 18.111328 10.042969 C 18.133328 10.045969 18.155734 10.053641 18.177734 10.056641 C 18.383734 10.088641 18.587109 10.135313 18.787109 10.195312 C 18.852109 10.215312 18.916469 10.239719 18.980469 10.261719 C 19.143469 10.318719 19.303937 10.384938 19.460938 10.460938 C 20.261937 10.849937 20.947297 11.466672 21.404297 12.263672 C 21.589297 12.585672 21.926438 12.765625 22.273438 12.765625 C 22.442438 12.765625 22.612531 12.722812 22.769531 12.632812 C 23.248531 12.357812 23.413672 11.746578 23.138672 11.267578 C 22.610672 10.348578 21.867953 9.5979688 21.001953 9.0429688 C 20.995953 8.4529688 21.092781 7.8805937 21.300781 7.3085938 C 21.923781 5.5945937 23.463609 4.3186406 25.224609 4.0566406 C 25.413984 4.0286406 25.602668 4.0110059 25.791016 4.0039062 z M 31 8 C 30.448 8 30 8.447 30 9 C 30 9.553 30.448 10 31 10 L 33 10 C 33.552 10 34 9.553 34 9 C 34 8.447 33.552 8 33 8 L 31 8 z M 31 13 C 30.448 13 30 13.447 30 14 C 30 14.553 30.448 15 31 15 L 33 15 C 33.552 15 34 14.553 34 14 C 34 13.447 33.552 13 33 13 L 31 13 z M 39.232422 15.958984 C 39.105047 15.983844 38.979734 16.032625 38.865234 16.109375 C 37.071234 17.322375 36 19.338 36 21.5 C 36 23.007 36.528328 24.476719 37.486328 25.636719 C 37.684328 25.875719 37.969812 26 38.257812 26 C 38.481812 26 38.708531 25.925484 38.894531 25.771484 C 39.320531 25.418484 39.379344 24.789281 39.027344 24.363281 C 38.364344 23.561281 38 22.544 38 21.5 C 38 20.003 38.742375 18.607531 39.984375 17.769531 C 40.442375 17.459531 40.562906 16.837859 40.253906 16.380859 C 40.021406 16.037359 39.614547 15.884406 39.232422 15.958984 z M 24.615234 16.085938 C 24.362234 16.124187 24.124437 16.258469 23.960938 16.480469 C 23.633938 16.924469 23.727875 17.550906 24.171875 17.878906 C 25.316875 18.724906 26 20.077 26 21.5 C 26 22.544 25.635656 23.561281 24.972656 24.363281 C 24.620656 24.789281 24.679469 25.419484 25.105469 25.771484 C 25.291469 25.925484 25.518187 26 25.742188 26 C 26.030188 26 26.316672 25.875719 26.513672 25.636719 C 27.472672 24.476719 28 23.007 28 21.5 C 28 19.445 27.011422 17.489531 25.357422 16.269531 C 25.134922 16.105531 24.868234 16.047688 24.615234 16.085938 z M 31 18 C 30.448 18 30 18.447 30 19 C 30 19.553 30.448 20 31 20 L 33 20 C 33.552 20 34 19.553 34 19 C 34 18.447 33.552 18 33 18 L 31 18 z M 31 23 C 30.448 23 30 23.447 30 24 C 30 24.553 30.448 25 31 25 L 33 25 C 33.552 25 34 24.553 34 24 C 34 23.447 33.552 23 33 23 L 31 23 z M 17.429688 23.072266 C 16.877688 23.072266 16.429688 23.519266 16.429688 24.072266 C 16.428688 26.576266 17.827125 28.814062 20.078125 29.914062 C 20.219125 29.983062 20.368625 30.017578 20.515625 30.017578 C 20.885625 30.017578 21.241062 29.811078 21.414062 29.455078 C 21.657062 28.959078 21.451078 28.359188 20.955078 28.117188 C 19.396078 27.355187 18.429688 25.806266 18.429688 24.072266 C 18.429688 23.519266 17.981687 23.072266 17.429688 23.072266 z M 46.496094 23.318359 C 45.944094 23.318359 45.496094 23.765359 45.496094 24.318359 C 45.496094 25.926359 44.628422 27.423609 43.232422 28.224609 C 42.753422 28.498609 42.588281 29.110844 42.863281 29.589844 C 43.048281 29.910844 43.383469 30.091797 43.730469 30.091797 C 43.899469 30.091797 44.071516 30.047031 44.228516 29.957031 C 46.244516 28.801031 47.496094 26.640406 47.496094 24.316406 C 47.496094 23.765406 47.048094 23.318359 46.496094 23.318359 z M 31 28 C 30.448 28 30 28.447 30 29 C 30 29.553 30.448 30 31 30 L 33 30 C 33.552 30 34 29.553 34 29 C 34 28.447 33.552 28 33 28 L 31 28 z M 31 33 C 30.448 33 30 33.447 30 34 C 30 34.553 30.448 35 31 35 L 33 35 C 33.552 35 34 34.553 34 34 C 34 33.447 33.552 33 33 33 L 31 33 z M 18.902344 34.966797 C 18.648039 34.974445 18.39475 34.997031 18.140625 35.035156 C 17.594625 35.118156 17.218781 35.627828 17.300781 36.173828 C 17.383781 36.720828 17.8935 37.087672 18.4375 37.013672 C 19.8445 36.796672 21.287922 37.27425 22.294922 38.28125 C 22.642922 38.63025 22.929484 39.028797 23.146484 39.466797 C 23.320484 39.818797 23.674969 40.023438 24.042969 40.023438 C 24.190969 40.021438 24.342375 39.987969 24.484375 39.917969 C 24.979375 39.672969 25.1825 39.071172 24.9375 38.576172 C 24.6245 37.943172 24.209031 37.369188 23.707031 36.867188 C 22.435656 35.595812 20.682477 34.913258 18.902344 34.966797 z M 45.427734 34.966797 C 43.647902 34.915172 41.893547 35.595812 40.623047 36.867188 C 40.120047 37.369188 39.705578 37.943172 39.392578 38.576172 C 39.147578 39.071172 39.350703 39.672969 39.845703 39.917969 C 39.988703 39.987969 40.138109 40.021484 40.287109 40.021484 C 40.655109 40.021484 41.011547 39.818797 41.185547 39.466797 C 41.402547 39.028797 41.688109 38.63025 42.037109 38.28125 C 43.058109 37.26025 44.462578 36.795672 45.892578 37.013672 C 46.440578 37.087672 46.946297 36.718875 47.029297 36.171875 C 47.112297 35.626875 46.735453 35.118156 46.189453 35.035156 C 45.935453 34.997531 45.681996 34.974172 45.427734 34.966797 z M 31 38 C 30.448 38 30 38.447 30 39 C 30 39.553 30.448 40 31 40 L 33 40 C 33.552 40 34 39.553 34 39 C 34 38.447 33.552 38 33 38 L 31 38 z M 31 43 C 30.448 43 30 43.447 30 44 C 30 44.553 30.448 45 31 45 L 33 45 C 33.552 45 34 44.553 34 44 C 34 43.447 33.552 43 33 43 L 31 43 z M 39.232422 45.958984 C 39.104969 45.983766 38.979734 46.032625 38.865234 46.109375 C 37.071234 47.322375 36 49.338 36 51.5 C 36 52.527 36.245938 53.549031 36.710938 54.457031 C 36.887937 54.803031 37.238563 55.001953 37.601562 55.001953 C 37.754562 55.001953 37.910641 54.967578 38.056641 54.892578 C 38.548641 54.640578 38.742234 54.038875 38.490234 53.546875 C 38.164234 52.910875 38 52.222 38 51.5 C 38 50.003 38.742375 48.607531 39.984375 47.769531 C 40.442375 47.459531 40.562906 46.837859 40.253906 46.380859 C 40.022156 46.038109 39.614781 45.884641 39.232422 45.958984 z M 24.615234 46.085938 C 24.362234 46.124313 24.124437 46.258969 23.960938 46.480469 C 23.632938 46.924469 23.727875 47.550906 24.171875 47.878906 C 25.316875 48.724906 26 50.077 26 51.5 C 26 52.223 25.833812 52.911828 25.507812 53.548828 C 25.256812 54.039828 25.449406 54.642531 25.941406 54.894531 C 26.087406 54.969531 26.243484 55.003906 26.396484 55.003906 C 26.759484 55.003906 27.110109 54.806937 27.287109 54.460938 C 27.753109 53.552937 28 52.527 28 51.5 C 28 49.445 27.011422 47.489531 25.357422 46.269531 C 25.134922 46.105531 24.868234 46.047562 24.615234 46.085938 z M 31 48 C 30.448 48 30 48.447 30 49 C 30 49.553 30.448 50 31 50 L 33 50 C 33.552 50 34 49.553 34 49 C 34 48.447 33.552 48 33 48 L 31 48 z M 31 53 C 30.448 53 30 53.447 30 54 C 30 54.553 30.448 55 31 55 L 33 55 C 33.552 55 34 54.553 34 54 C 34 53.447 33.552 53 33 53 L 31 53 z"/>
</svg>
